<?xml version="1.0" encoding="utf-8"?>
<!-- Generator: Adobe Illustrator 21.0.0, SVG Export Plug-In . SVG Version: 6.00 Build 0)  -->
<svg version="1.1" id="Layer_1" xmlns="http://www.w3.org/2000/svg" xmlns:xlink="http://www.w3.org/1999/xlink" x="0px" y="0px"
	 viewBox="-294 386.7 21.2 21.3" style="enable-background:new -294 386.7 21.2 21.3;" xml:space="preserve">
<style type="text/css">
	.st0{fill:#FF7058;}
	.st1{fill:#84DBFF;}
	.st2{fill:#CDD6E0;}
	.st3{fill:#F2F2F2;}
	.st4{fill:#FFD15C;}
	.st5{fill:#334A5E;}
	.st6{fill:#40596B;}
</style>
<g>
	<path class="st0" d="M-276.74,393.98h-3.9v7.08h6.4v-3.19l-0.75-2.58C-275.22,394.52-275.93,393.98-276.74,393.98"/>
	<path class="st1" d="M-275.18,397.84l-0.66-2.3c-0.11-0.4-0.48-0.67-0.89-0.67h-3.02v2.97H-275.18z"/>
	<polygon class="st2" points="-275.18,397.84 -279.75,397.84 -279.75,394.87 	"/>
	<path class="st3" d="M-275.18,397.84l-0.66-2.3c-0.11-0.4-0.48-0.67-0.89-0.67h-3.02L-275.18,397.84z"/>
	<path class="st4" d="M-291.67,390.43h9.85c0.65,0,1.18,0.53,1.18,1.18v9.45h-12.21v-9.45
		C-292.85,390.96-292.33,390.43-291.67,390.43"/>
	<polygon class="st3" points="-284.85,390.43 -284.85,393.55 -285.31,393.1 -285.79,393.58 -286.26,393.1 -286.74,393.58 
		-287.22,393.1 -287.71,393.58 -288.19,393.1 -288.65,393.56 -288.65,390.43 	"/>
	<path class="st5" d="M-273.95,401.06v1.34h-18.91v-1.34h1.97c0.46-0.83,1.35-1.39,2.36-1.39c1.01,0,1.9,0.56,2.36,1.39h6.35
		c0.46-0.83,1.34-1.39,2.36-1.39c1.02,0,1.9,0.56,2.36,1.39H-273.95z"/>
	<path class="st6" d="M-275.56,402.38c0,1.04-0.84,1.89-1.89,1.89c-1.04,0-1.89-0.84-1.89-1.89c0-1.04,0.84-1.89,1.89-1.89
		C-276.4,400.5-275.56,401.34-275.56,402.38"/>
	<path class="st6" d="M-286.63,402.38c0,1.04-0.85,1.89-1.89,1.89c-1.04,0-1.89-0.84-1.89-1.89c0-1.04,0.84-1.89,1.89-1.89
		C-287.48,400.5-286.63,401.34-286.63,402.38"/>
</g>
</svg>
