<?xml version="1.0" encoding="utf-8"?>
<!-- Generator: Adobe Illustrator 21.0.0, SVG Export Plug-In . SVG Version: 6.00 Build 0)  -->
<svg version="1.1" id="Layer_1" xmlns="http://www.w3.org/2000/svg" xmlns:xlink="http://www.w3.org/1999/xlink" x="0px" y="0px"
	 viewBox="-294 386.7 21.2 21.3" style="enable-background:new -294 386.7 21.2 21.3;" xml:space="preserve">
<style type="text/css">
	.st0{fill:#FFAC96;}
	.st1{fill:#FFBCAB;}
	.st2{fill:#006DF0;}
	.st3{fill:#D80027;}
	.st4{fill:#BD0022;}
	.st5{fill:#F1F2F2;}
</style>
<g id="healthcare-covid19-coronavirus-hand-hearth">
	<path class="st0" d="M-288.69,396.48l-1.47-4.24c-0.13-0.51-0.63-0.84-1.16-0.75c-0.53,0.11-0.86,0.63-0.75,1.16
		c0,0.02,0.01,0.03,0.01,0.05l1.51,4.67L-288.69,396.48z"/>
	<path class="st0" d="M-278.11,396.48l1.47-4.24c0.13-0.51,0.63-0.84,1.16-0.75c0.53,0.11,0.86,0.63,0.75,1.16
		c0,0.02-0.01,0.03-0.01,0.05l-1.51,4.67L-278.11,396.48z"/>
	<path class="st1" d="M-285.66,398.23l-2.87-1.68c-0.41-0.24-0.93-0.14-1.23,0.22l-1.05-3.23c-0.13-0.51-0.63-0.84-1.16-0.75
		c-0.53,0.11-0.86,0.63-0.75,1.16c0,0.02,0.01,0.03,0.01,0.05l1.41,5.27c0.06,0.25,0.2,0.47,0.39,0.64l2.19,1.95
		c0.28,0.25,0.44,0.6,0.43,0.97v1.04h3.89v-3.38C-284.37,399.55-284.86,398.7-285.66,398.23z"/>
	<path class="st1" d="M-274.84,392.79c-0.52-0.09-1.03,0.24-1.16,0.75l-1.05,3.23c-0.3-0.36-0.82-0.46-1.23-0.22l-2.87,1.68
		c-0.79,0.47-1.28,1.32-1.28,2.24v3.38h3.89v-1.04c0-0.37,0.16-0.72,0.43-0.97l2.19-1.95c0.19-0.17,0.33-0.39,0.39-0.64l1.41-5.27
		c0.14-0.52-0.17-1.06-0.69-1.19C-274.81,392.79-274.82,392.79-274.84,392.79L-274.84,392.79z"/>
	<path class="st2" d="M-282.75,403.85v2.6h4.54v-2.6h-0.32h-3.89H-282.75z"/>
	<path class="st2" d="M-284.05,403.85h-0.32h-3.89h-0.32v2.6h4.54V403.85z"/>
	<path class="st3" d="M-279.04,392.67l-0.23,0.23l-4.13,4.13l-4.13-4.13l-0.23-0.23c-1.16-1.12-1.2-2.97-0.09-4.13
		c1.12-1.16,2.97-1.2,4.13-0.09c0.03,0.03,0.06,0.06,0.09,0.09l0.23,0.23l0.23-0.23c1.12-1.17,2.96-1.21,4.13-0.09
		c1.17,1.12,1.21,2.96,0.09,4.13C-278.98,392.62-279.01,392.65-279.04,392.67z"/>
	<path class="st4" d="M-279.04,388.55c-0.63-0.63-1.51-0.94-2.39-0.84c1.6,0.18,2.76,1.62,2.58,3.22c-0.07,0.66-0.37,1.27-0.84,1.74
		l-0.23,0.23l-3.81,3.81l0.32,0.32l4.13-4.13l0.23-0.23C-277.9,391.53-277.9,389.69-279.04,388.55z"/>
	<path class="st5" d="M-282.75,393.79v-1.3h1.3v-1.3h-1.3v-1.3h-1.3v1.3h-1.3v1.3h1.3v1.3H-282.75z"/>
	<g>
		<path class="st0" d="M-277.3,397.59l-2.17,1.2c-0.13,0.07-0.18,0.24-0.11,0.37c0.07,0.14,0.24,0.19,0.38,0.13
			c0.01,0,0.01-0.01,0.02-0.01l1.89-1.04c0.41-0.24,0.59-0.73,0.43-1.17C-276.95,397.29-277.1,397.47-277.3,397.59L-277.3,397.59z"
			/>
		<path class="st0" d="M-289.5,397.59l2.17,1.2c0.13,0.07,0.18,0.24,0.11,0.37c-0.07,0.14-0.24,0.19-0.38,0.13
			c-0.01,0-0.01-0.01-0.02-0.01l-1.89-1.04c-0.41-0.24-0.59-0.73-0.43-1.17C-289.85,397.29-289.7,397.47-289.5,397.59L-289.5,397.59
			z"/>
	</g>
</g>
</svg>
