<?xml version="1.0" encoding="utf-8"?>
<!-- Generator: Adobe Illustrator 21.0.0, SVG Export Plug-In . SVG Version: 6.00 Build 0)  -->
<svg version="1.1" id="Layer_1" xmlns="http://www.w3.org/2000/svg" xmlns:xlink="http://www.w3.org/1999/xlink" x="0px" y="0px"
	 viewBox="-294 386.7 21.2 21.3" style="enable-background:new -294 386.7 21.2 21.3;" xml:space="preserve">
<style type="text/css">
	.st0{fill:#B7E7EB;}
	.st1{fill:#348FD9;}
	.st2{fill:#459DE6;}
	.st3{fill:#5DADF0;}
	.st4{fill:#FEC9A3;}
	.st5{fill:#FEB784;}
	.st6{fill:#92563A;}
	.st7{fill:#F98500;}
	.st8{fill:#2F486E;}
	.st9{fill:#7A432A;}
	.st10{fill:#E0E0DE;}
	.st11{fill:#26395A;}
	.st12{fill:#34507B;}
</style>
<g id="Flat">
	<g>
		<path class="st0" d="M-291.56,392.88l-0.63-0.18c0.61-2.19,1.99-4.08,3.89-5.34l0.36,0.54
			C-289.7,389.07-290.99,390.84-291.56,392.88z"/>
		<path class="st0" d="M-291.82,394.16l-0.65-0.08c0.03-0.23,0.06-0.45,0.11-0.68l0.64,0.13
			C-291.76,393.74-291.79,393.95-291.82,394.16z"/>
		<path class="st0" d="M-274.17,398.45l-0.61-0.22c1.2-3.34,0.28-7.07-2.33-9.47l0.44-0.48
			C-273.87,390.86-272.88,394.86-274.17,398.45L-274.17,398.45z"/>
		<path class="st0" d="M-277.55,388.39c-0.21-0.17-0.43-0.33-0.65-0.48l0.36-0.54c0.24,0.16,0.47,0.33,0.7,0.51L-277.55,388.39z"/>
	</g>
	<path class="st1" d="M-275.29,395.25c0,0.05,0,0.1,0,0.14c-0.08,4.26-3.55,7.68-7.83,7.68c-4.32,0-7.83-3.51-7.83-7.83
		c0-0.23,0.01-0.46,0.03-0.68c0.38-4.31,4.17-7.49,8.48-7.12C-278.39,387.8-275.29,391.19-275.29,395.25z"/>
	<path class="st2" d="M-281.49,393.29h-1.3v2.28h-2.94v1.96l-5.19-2.97c0.16-1.84,0.96-3.56,2.27-4.86h1.29l1.3,2.61h1.3v-1.3h1.96
		L-281.49,393.29z"/>
	<path class="st2" d="M-285.73,397.53h3.59v0.98h1.96l-1.63,3.26h-2.61v-2.28h-1.3V397.53z"/>
	<path class="st2" d="M-279.2,388.47l-1.96,2.21l-0.98-1.63h-1.63l-0.86-1.49C-282.77,387.2-280.84,387.52-279.2,388.47z"/>
	<path class="st2" d="M-275.29,395.25c0,0.05,0,0.1,0,0.14l-1.63,2.14h-1.63v-2.94h-1.3v-2.28l2.56-2.3
		C-276,391.44-275.29,393.31-275.29,395.25z"/>
	<path class="st3" d="M-288.08,391.53l-0.52-0.39c0.2-0.26,0.41-0.51,0.65-0.74l0.46,0.46
		C-287.71,391.07-287.9,391.29-288.08,391.53L-288.08,391.53z"/>
	<path class="st3" d="M-289.25,394.32l-0.65-0.1c0.14-0.92,0.46-1.8,0.95-2.58l0.55,0.34
		C-288.83,392.69-289.13,393.49-289.25,394.32z"/>
	<path class="st4" d="M-288.34,399.49h-3.26v-3.91h3.26l0.98,2.28h-0.98V399.49z"/>
	<path class="st5" d="M-288.34,398.83c-0.64,0-1.23-0.28-1.53-0.73l-0.05-0.07l0.54-0.36l0.05,0.07c0.18,0.27,0.57,0.44,0.99,0.44
		V398.83z"/>
	<path class="st6" d="M-289.97,396.55h0.65v0.65h-0.65V396.55z"/>
	<path class="st7" d="M-287.69,394.92c0,0.36-0.29,0.65-0.65,0.65h-1.96l-1.3,1.3v-1.3c0-0.72,0.58-1.3,1.3-1.3h2.61V394.92z"/>
	<path class="st8" d="M-287.04,400.47v5.87h-5.55v-5.87c0-0.49,0.36-0.91,0.85-0.97c0.04-0.01,0.08-0.01,0.13-0.01h3.59
		C-287.47,399.49-287.04,399.93-287.04,400.47z"/>
	<path class="st5" d="M-284.1,405.03h-2.28v-1.96l1.3-0.33l0.98,0.33V405.03z"/>
	<path class="st4" d="M-278.23,399.49h2.61v-3.37c0-1.02-0.83-1.85-1.85-1.85c-0.83,0-1.56,0.56-1.78,1.36l-0.61,2.23h0.98v0.98
		C-278.88,399.2-278.59,399.49-278.23,399.49z"/>
	<path class="st6" d="M-277.9,396.55h0.65v0.65h-0.65V396.55z"/>
	<path class="st9" d="M-278.88,395.57h1.96l1.3,1.3v-1.3c0-0.72-0.58-1.3-1.3-1.3h-1.96c-0.36,0-0.65,0.29-0.65,0.65
		S-279.24,395.57-278.88,395.57z"/>
	<path class="st9" d="M-278.88,397.86h0.98c0.36,0,0.65,0.29,0.65,0.65v0.98l0,0h-0.98c-0.36,0-0.65-0.29-0.65-0.65V397.86
		L-278.88,397.86z"/>
	<path class="st8" d="M-280.5,400.35l-0.99,2.73h-1.3v1.96h1.67c0.56,0,1.06-0.36,1.24-0.89l0.68-2.04v4.24h3.91v-1.3h1.63v-4.24
		c0-0.72-0.58-1.3-1.3-1.3h-4.31C-279.82,399.49-280.31,399.83-280.5,400.35z"/>
	<path class="st4" d="M-284.1,405.03h1.3v-1.96h-1.3l-0.98,0.33v0.98l0.98-0.33V405.03z"/>
	<path class="st10" d="M-275.62,399.49l-1.3,2.35l-0.33,0.59l-0.33-0.59l-1.3-2.35H-275.62z"/>
	<path class="st11" d="M-276.92,401.84v-2.35h-0.65v2.35l0.33,0.59L-276.92,401.84z"/>
	<path class="st11" d="M-277.57,403.4h0.65v0.65h-0.65V403.4z"/>
	<path class="st11" d="M-277.57,404.71h0.65v0.65h-0.65V404.71z"/>
	<path class="st4" d="M-275.29,405.03h1.63v1.3h-1.63V405.03z"/>
	<path class="st10" d="M-288.34,399.49l-1.63,2.61l-1.76-2.6c0.04-0.01,0.08-0.01,0.13-0.01H-288.34z"/>
	<path class="st11" d="M-290.3,399.49h0.65v2.61h-0.65V399.49z"/>
	<path class="st12" d="M-288.67,403.08l-3.07-3.58c-0.48,0.07-0.85,0.48-0.85,0.97v1.47l2.22,2.63c0.25,0.29,0.61,0.46,1,0.46h2.98
		v-1.96H-288.67z"/>
	<path class="st11" d="M-275.62,401.44h0.65v4.89h-0.65V401.44z"/>
</g>
</svg>
