<?xml version="1.0" encoding="utf-8"?>
<!-- Generator: Adobe Illustrator 21.0.0, SVG Export Plug-In . SVG Version: 6.00 Build 0)  -->
<svg version="1.1" id="Layer_1" xmlns="http://www.w3.org/2000/svg" xmlns:xlink="http://www.w3.org/1999/xlink" x="0px" y="0px"
	 viewBox="-294 386.7 21.2 21.3" style="enable-background:new -294 386.7 21.2 21.3;" xml:space="preserve">
<g>
	<path d="M-277.58,397.61v-1.8c0-2.62-1.74-4.84-4.13-5.57v-0.81c0-0.93-0.76-1.69-1.69-1.69c-0.93,0-1.69,0.76-1.69,1.69v0.81
		c-2.39,0.73-4.13,2.95-4.13,5.57v1.8c0,2.3-0.88,4.48-2.47,6.14c-0.16,0.16-0.2,0.4-0.11,0.61c0.09,0.21,0.29,0.34,0.52,0.34h5.12
		c0.26,1.28,1.4,2.25,2.76,2.25c1.36,0,2.5-0.97,2.76-2.25h5.12c0.23,0,0.43-0.13,0.52-0.34s0.04-0.45-0.11-0.61
		C-276.71,402.09-277.58,399.91-277.58,397.61z M-283.96,389.43c0-0.31,0.25-0.56,0.56-0.56c0.31,0,0.56,0.25,0.56,0.56v0.59
		c-0.19-0.02-0.37-0.03-0.56-0.03c-0.19,0-0.38,0.01-0.56,0.03V389.43z M-283.4,405.83c-0.73,0-1.36-0.47-1.59-1.13h3.18
		C-282.04,405.36-282.67,405.83-283.4,405.83L-283.4,405.83z M-290.07,403.58c1.28-1.72,1.98-3.8,1.98-5.97v-1.8
		c0-2.59,2.1-4.69,4.69-4.69c2.59,0,4.69,2.1,4.69,4.69v1.8c0,2.17,0.69,4.25,1.98,5.97H-290.07z"/>
	<path d="M-276.08,395.81c0,0.31,0.25,0.56,0.56,0.56s0.56-0.25,0.56-0.56c0-2.25-0.88-4.37-2.47-5.97c-0.22-0.22-0.58-0.22-0.8,0
		s-0.22,0.58,0,0.8C-276.84,392.02-276.08,393.86-276.08,395.81L-276.08,395.81z"/>
	<path d="M-291.28,396.37c0.31,0,0.56-0.25,0.56-0.56c0-1.95,0.76-3.79,2.14-5.17c0.22-0.22,0.22-0.58,0-0.8
		c-0.22-0.22-0.58-0.22-0.8,0c-1.59,1.59-2.47,3.71-2.47,5.97C-291.84,396.12-291.59,396.37-291.28,396.37z"/>
</g>
</svg>
