<?xml version="1.0" encoding="utf-8"?>
<!-- Generator: Adobe Illustrator 21.0.0, SVG Export Plug-In . SVG Version: 6.00 Build 0)  -->
<svg version="1.1" id="Layer_1" xmlns="http://www.w3.org/2000/svg" xmlns:xlink="http://www.w3.org/1999/xlink" x="0px" y="0px"
	 viewBox="-294 386.7 21.2 21.3" style="enable-background:new -294 386.7 21.2 21.3;" xml:space="preserve">
<style type="text/css">
	.st0{fill:#D5DBDB;}
	.st1{fill:#EDFCFC;}
	.st2{fill:#FDA22E;}
	.st3{fill:#3C7EB0;}
	.st4{fill:#4BBEE5;}
	.st5{fill:#B9BABA;}
	.st6{fill:#296991;}
	.st7{fill:#4198CE;}
	.st8{fill:#F82F45;}
	.st9{fill:#D22435;}
	.st10{fill:#2D366D;}
</style>
<path class="st0" d="M-277.34,396.7v-7.12c0-0.72-0.58-1.29-1.29-1.29h-12.94c-0.72,0-1.29,0.58-1.29,1.29v7.12
	C-292.87,396.7-277.38,396.68-277.34,396.7z"/>
<path class="st1" d="M-285.05,396.7h0.78l0,0l-0.31-1.03l0.37-0.27c0.36-0.26,0.75-0.49,1.17-0.68l0.42-0.19l0.74,0.8
	c0.08-0.02,0.16-0.05,0.25-0.07l0.25-1.05l0.45-0.05c0.22-0.02,0.44-0.04,0.68-0.04s0.47,0.01,0.68,0.04l0.29,0.03v-4.6h-11.65v7.12
	h5.34l0.1-0.13L-285.05,396.7z"/>
<path class="st2" d="M-290.92,389.58h11.65v2.59h-11.65V389.58z"/>
<path class="st3" d="M-285.83,402.54c-0.02-0.08-0.05-0.16-0.07-0.25l-1.05-0.25l-0.05-0.45c-0.02-0.22-0.04-0.44-0.04-0.68
	s0.01-0.47,0.04-0.68l0.05-0.45l1.05-0.25c0.02-0.08,0.04-0.16,0.06-0.23h-1.85l-1.29,3.56h2.81L-285.83,402.54z"/>
<path class="st4" d="M-285.83,399.28l-0.79-0.74l0.19-0.42c0.19-0.41,0.41-0.81,0.68-1.17l0.18-0.24h-7.28V398
	c0,0.72,0.58,1.29,1.29,1.29h5.73C-285.84,399.29-285.83,399.28-285.83,399.28L-285.83,399.28z"/>
<path class="st4" d="M-284.46,396.88c0.06-0.06,0.12-0.12,0.18-0.18h-0.78L-284.46,396.88z"/>
<path class="st5" d="M-277.88,394.53l-0.74,0.79c-0.08-0.02-0.16-0.05-0.25-0.07l-0.25-1.05l-0.17-0.02v2.52h1.94v-1.92
	c-0.04-0.02-0.08-0.04-0.13-0.06L-277.88,394.53z"/>
<path class="st0" d="M-279.56,394.15c-0.22-0.02-0.44-0.04-0.68-0.04s-0.47,0.01-0.68,0.04l-0.45,0.05l-0.25,1.05
	c-0.08,0.02-0.16,0.04-0.25,0.07l-0.74-0.8l-0.42,0.19c-0.42,0.19-0.81,0.42-1.17,0.68l-0.37,0.27l0.31,1.03c0,0,0,0,0,0h0.68h4.32
	v-2.52L-279.56,394.15z"/>
<path class="st0" d="M-285.49,396.57l-0.1,0.13h0.53L-285.49,396.57z"/>
<path class="st6" d="M-285.9,399.52l-1.05,0.25l-0.05,0.45c-0.02,0.22-0.04,0.44-0.04,0.68c0,0.24,0.01,0.47,0.04,0.68l0.05,0.45
	l1.05,0.25c0.02,0.08,0.04,0.16,0.07,0.25l-0.33,0.31h0.95l0.13-0.12c-0.12-0.31-0.21-0.63-0.26-0.97l-1.01-0.24
	c-0.02-0.2-0.03-0.4-0.03-0.61c0-0.21,0.01-0.41,0.03-0.61l1.01-0.24c0.04-0.27,0.11-0.52,0.19-0.77h-0.68
	C-285.86,399.37-285.88,399.45-285.9,399.52L-285.9,399.52z"/>
<path class="st7" d="M-284.46,396.88l-0.6-0.18h-0.53l-0.18,0.24c-0.26,0.36-0.49,0.76-0.68,1.17l-0.19,0.42l0.79,0.74
	c0,0,0,0.01,0,0.01h0.68c0.02-0.07,0.05-0.14,0.07-0.2l-0.76-0.71c0.17-0.38,0.37-0.73,0.61-1.06l0.99,0.3
	c0.21-0.26,0.45-0.5,0.71-0.71l-0.06-0.21h-0.68C-284.34,396.76-284.4,396.82-284.46,396.88L-284.46,396.88z"/>
<path class="st8" d="M-285.22,402.85l0.13-0.12c-0.12-0.31-0.21-0.63-0.26-0.97l-1.01-0.24c-0.02-0.2-0.03-0.4-0.03-0.61
	c0-0.21,0.01-0.41,0.03-0.61l1.01-0.24c0.04-0.27,0.11-0.52,0.19-0.77c0.02-0.07,0.05-0.14,0.07-0.2l-0.76-0.71
	c0.17-0.38,0.37-0.73,0.61-1.06l0.99,0.3c0.21-0.26,0.45-0.5,0.71-0.71l-0.06-0.21l-0.24-0.78c0.33-0.24,0.68-0.44,1.06-0.61
	l0.71,0.76c0.31-0.12,0.63-0.21,0.97-0.26l0.24-1.01c0.2-0.02,0.4-0.03,0.61-0.03s0.41,0.01,0.61,0.03l0.24,1.01
	c0.34,0.05,0.66,0.14,0.97,0.26l0.71-0.76c0.13,0.06,0.26,0.12,0.39,0.19c0.23,0.12,0.46,0.27,0.67,0.42l-0.3,0.99
	c0.26,0.21,0.5,0.45,0.71,0.71l0.99-0.3c0.24,0.33,0.44,0.68,0.61,1.06l-0.76,0.71c0.12,0.31,0.21,0.63,0.26,0.97l1.01,0.24
	c0.02,0.2,0.03,0.4,0.03,0.61c0,0.21-0.01,0.41-0.03,0.61l-1.01,0.24c-0.05,0.34-0.14,0.66-0.26,0.97l0.76,0.71
	c-0.17,0.38-0.37,0.73-0.61,1.06l-0.99-0.3c-0.21,0.26-0.45,0.5-0.71,0.71l0.3,0.99c-0.33,0.24-0.68,0.44-1.06,0.61l-0.71-0.76
	c-0.31,0.12-0.63,0.21-0.97,0.26l-0.24,1.01c-0.2,0.02-0.4,0.03-0.61,0.03s-0.41-0.01-0.61-0.03l-0.24-1.01
	c-0.34-0.06-0.66-0.14-0.97-0.26l-0.71,0.76c-0.38-0.17-0.73-0.37-1.06-0.61l0.3-0.99c-0.26-0.21-0.5-0.45-0.71-0.71l-0.99,0.3
	c-0.08-0.11-0.16-0.23-0.23-0.35c-0.14-0.23-0.27-0.46-0.38-0.71L-285.22,402.85z M-278.31,400.91c0-1.07-0.87-1.94-1.94-1.94
	s-1.94,0.87-1.94,1.94c0,1.07,0.87,1.94,1.94,1.94S-278.31,401.98-278.31,400.91z"/>
<path class="st9" d="M-280.25,398.32c-1.43,0-2.59,1.16-2.59,2.59c0,1.43,1.16,2.59,2.59,2.59c1.43,0,2.59-1.16,2.59-2.59
	C-277.66,399.48-278.82,398.32-280.25,398.32z M-280.25,402.85c-1.07,0-1.94-0.87-1.94-1.94s0.87-1.94,1.94-1.94
	s1.94,0.87,1.94,1.94S-279.18,402.85-280.25,402.85z"/>
<g>
	<path class="st10" d="M-281.64,390.97l-0.46,0.46l0.74,0.74h-4.07c-0.89,0-1.62,0.73-1.62,1.62v1.94h0.65v-1.94
		c0-0.54,0.44-0.97,0.97-0.97h4.07l-0.74,0.74l0.46,0.46l1.52-1.52L-281.64,390.97z"/>
	<path class="st10" d="M-289.95,390.55h0.65v0.65h-0.65V390.55z"/>
	<path class="st10" d="M-288.66,390.55h0.65v0.65h-0.65V390.55z"/>
	<path class="st10" d="M-287.37,390.55h0.65v0.65h-0.65V390.55z"/>
</g>
<path class="st0" d="M-280.07,404.79l-0.03-0.65c0.19-0.01,0.39-0.03,0.57-0.08l0.14,0.63
	C-279.61,404.74-279.84,404.78-280.07,404.79L-280.07,404.79z M-281.11,404.69c-0.23-0.05-0.45-0.12-0.66-0.21l0.25-0.6
	c0.18,0.08,0.36,0.14,0.55,0.18L-281.11,404.69z M-278.41,404.33l-0.31-0.57c0.17-0.09,0.33-0.2,0.48-0.32l0.4,0.51
	C-278.01,404.09-278.2,404.22-278.41,404.33L-278.41,404.33z M-282.66,403.95c-0.18-0.14-0.35-0.31-0.5-0.48l0.49-0.43
	c0.13,0.15,0.27,0.28,0.42,0.4L-282.66,403.95z M-277.11,403.19l-0.52-0.38c0.11-0.16,0.21-0.32,0.3-0.5l0.58,0.28
	C-276.85,402.8-276.97,403-277.11,403.19L-277.11,403.19z M-283.74,402.6c-0.1-0.21-0.18-0.43-0.25-0.65l0.62-0.17
	c0.05,0.18,0.12,0.37,0.2,0.54L-283.74,402.6z M-276.43,401.6l-0.64-0.11c0.03-0.19,0.05-0.38,0.05-0.58l0.65-0.01v0.01
	C-276.37,401.14-276.39,401.37-276.43,401.6z M-284.13,400.91L-284.13,400.91c0-0.24,0.02-0.47,0.06-0.69l0.64,0.11
	c-0.03,0.19-0.05,0.38-0.05,0.57L-284.13,400.91z M-277.13,400.03c-0.05-0.19-0.12-0.37-0.21-0.54l0.58-0.28
	c0.1,0.21,0.19,0.43,0.25,0.65L-277.13,400.03z M-283.17,399.51l-0.58-0.28c0.1-0.21,0.22-0.41,0.36-0.6l0.52,0.38
	C-282.98,399.17-283.08,399.34-283.17,399.51z M-277.82,398.77c-0.13-0.15-0.27-0.28-0.42-0.4l0.4-0.51c0.18,0.14,0.35,0.3,0.5,0.48
	L-277.82,398.77z M-282.27,398.38l-0.41-0.5c0.18-0.15,0.38-0.27,0.58-0.39l0.31,0.57C-281.96,398.15-282.12,398.26-282.27,398.38
	L-282.27,398.38z M-278.99,397.93c-0.18-0.08-0.36-0.13-0.55-0.18l0.14-0.63c0.23,0.05,0.45,0.12,0.66,0.21L-278.99,397.93z
	 M-280.98,397.75l-0.15-0.63c0.23-0.05,0.46-0.08,0.69-0.09l0.03,0.65C-280.6,397.69-280.79,397.71-280.98,397.75z"/>
</svg>
